<?xml version="1.0" encoding="utf-8" standalone="no"?>
<!DOCTYPE svg PUBLIC "-//W3C//DTD SVG 1.1//EN"
  "http://www.w3.org/Graphics/SVG/1.1/DTD/svg11.dtd">
<svg xmlns:xlink="http://www.w3.org/1999/xlink" width="496.558736pt" height="279.794219pt" viewBox="0 0 496.558736 279.794219" xmlns="http://www.w3.org/2000/svg" version="1.1">
 <metadata>
  <rdf:RDF xmlns:dc="http://purl.org/dc/elements/1.1/" xmlns:cc="http://creativecommons.org/ns#" xmlns:rdf="http://www.w3.org/1999/02/22-rdf-syntax-ns#">
   <cc:Work>
    <dc:type rdf:resource="http://purl.org/dc/dcmitype/StillImage"/>
    <dc:date>2026-04-06T20:13:38.091566</dc:date>
    <dc:format>image/svg+xml</dc:format>
    <dc:creator>
     <cc:Agent>
      <dc:title>Matplotlib v3.10.8, https://matplotlib.org/</dc:title>
     </cc:Agent>
    </dc:creator>
   </cc:Work>
  </rdf:RDF>
 </metadata>
 <defs>
  <style type="text/css">*{stroke-linejoin: round; stroke-linecap: butt}</style>
 </defs>
 <g id="figure_1">
  <g id="patch_1">
   <path d="M 0 279.794219 
L 496.558736 279.794219 
L 496.558736 0 
L 0 0 
z
" style="fill: #0e0e14"/>
  </g>
  <g id="axes_1">
   <g id="patch_2">
    <path d="M 68.747031 242.237969 
L 467.476212 242.237969 
L 467.476212 23.077969 
L 68.747031 23.077969 
z
" style="fill: #12121a"/>
   </g>
   <g id="patch_3">
    <path d="M 301.339053 33.039787 
L 337.191207 33.039787 
L 337.191207 39.630303 
L 301.339053 39.630303 
z
" clip-path="url(#p945e41185d)" style="fill: #45266e; stroke: #2a2a3a; stroke-width: 0.5; stroke-linejoin: miter"/>
   </g>
   <g id="patch_4">
    <path d="M 301.339053 43.179042 
L 364.690692 43.179042 
L 364.690692 49.769558 
L 301.339053 49.769558 
z
" clip-path="url(#p945e41185d)" style="fill: #9b1e22; stroke: #2a2a3a; stroke-width: 0.5; stroke-linejoin: miter"/>
   </g>
   <g id="patch_5">
    <path d="M 301.339053 53.318297 
L 358.962149 53.318297 
L 358.962149 59.908813 
L 301.339053 59.908813 
z
" clip-path="url(#p945e41185d)" style="fill: #2e3b50; stroke: #2a2a3a; stroke-width: 0.5; stroke-linejoin: miter"/>
   </g>
   <g id="patch_6">
    <path d="M 301.339053 63.457552 
L 180.395859 63.457552 
L 180.395859 70.048068 
L 301.339053 70.048068 
z
" clip-path="url(#p945e41185d)" style="fill: #529bb1; stroke: #2a2a3a; stroke-width: 0.5; stroke-linejoin: miter"/>
   </g>
   <g id="patch_7">
    <path d="M 301.339053 73.596808 
L 310.566564 73.596808 
L 310.566564 80.187323 
L 301.339053 80.187323 
z
" clip-path="url(#p945e41185d)" style="fill: #d18e35; stroke: #2a2a3a; stroke-width: 0.5; stroke-linejoin: miter"/>
   </g>
   <g id="patch_8">
    <path d="M 301.339053 83.736063 
L 307.790898 83.736063 
L 307.790898 90.326579 
L 301.339053 90.326579 
z
" clip-path="url(#p945e41185d)" style="fill: #39bda0; stroke: #2a2a3a; stroke-width: 0.5; stroke-linejoin: miter"/>
   </g>
   <g id="patch_9">
    <path d="M 301.339053 93.875318 
L 422.45077 93.875318 
L 422.45077 100.465834 
L 301.339053 100.465834 
z
" clip-path="url(#p945e41185d)" style="fill: #6c0018; stroke: #2a2a3a; stroke-width: 0.5; stroke-linejoin: miter"/>
   </g>
   <g id="patch_10">
    <path d="M 301.339053 104.014573 
L 303.124986 104.014573 
L 303.124986 110.605089 
L 301.339053 110.605089 
z
" clip-path="url(#p945e41185d)" style="fill: #f0bb3b; stroke: #2a2a3a; stroke-width: 0.5; stroke-linejoin: miter"/>
   </g>
   <g id="patch_11">
    <path d="M 301.339053 114.153828 
L 364.153336 114.153828 
L 364.153336 120.744344 
L 301.339053 120.744344 
z
" clip-path="url(#p945e41185d)" style="fill: #934c3a; stroke: #2a2a3a; stroke-width: 0.5; stroke-linejoin: miter"/>
   </g>
   <g id="patch_12">
    <path d="M 301.339053 124.293083 
L 332.08183 124.293083 
L 332.08183 130.883599 
L 301.339053 130.883599 
z
" clip-path="url(#p945e41185d)" style="fill: #3e505c; stroke: #2a2a3a; stroke-width: 0.5; stroke-linejoin: miter"/>
   </g>
   <g id="patch_13">
    <path d="M 301.339053 134.432338 
L 420.505533 134.432338 
L 420.505533 141.022854 
L 301.339053 141.022854 
z
" clip-path="url(#p945e41185d)" style="fill: #4f3562; stroke: #2a2a3a; stroke-width: 0.5; stroke-linejoin: miter"/>
   </g>
   <g id="patch_14">
    <path d="M 301.339053 144.571594 
L 456.041672 144.571594 
L 456.041672 151.162109 
L 301.339053 151.162109 
z
" clip-path="url(#p945e41185d)" style="fill: #f0bb3b; stroke: #2a2a3a; stroke-width: 0.5; stroke-linejoin: miter"/>
   </g>
   <g id="patch_15">
    <path d="M 301.339053 154.710849 
L 328.481185 154.710849 
L 328.481185 161.301365 
L 301.339053 161.301365 
z
" clip-path="url(#p945e41185d)" style="fill: #cba960; stroke: #2a2a3a; stroke-width: 0.5; stroke-linejoin: miter"/>
   </g>
   <g id="patch_16">
    <path d="M 301.339053 164.850104 
L 353.093038 164.850104 
L 353.093038 171.44062 
L 301.339053 171.44062 
z
" clip-path="url(#p945e41185d)" style="fill: #510009; stroke: #2a2a3a; stroke-width: 0.5; stroke-linejoin: miter"/>
   </g>
   <g id="patch_17">
    <path d="M 301.339053 174.989359 
L 399.556192 174.989359 
L 399.556192 181.579875 
L 301.339053 181.579875 
z
" clip-path="url(#p945e41185d)" style="fill: #f6ab6b; stroke: #2a2a3a; stroke-width: 0.5; stroke-linejoin: miter"/>
   </g>
   <g id="patch_18">
    <path d="M 301.339053 185.128614 
L 250.944223 185.128614 
L 250.944223 191.71913 
L 301.339053 191.71913 
z
" clip-path="url(#p945e41185d)" style="fill: #7168a3; stroke: #2a2a3a; stroke-width: 0.5; stroke-linejoin: miter"/>
   </g>
   <g id="patch_19">
    <path d="M 301.339053 195.267869 
L 363.804722 195.267869 
L 363.804722 201.858385 
L 301.339053 201.858385 
z
" clip-path="url(#p945e41185d)" style="fill: #d18e35; stroke: #2a2a3a; stroke-width: 0.5; stroke-linejoin: miter"/>
   </g>
   <g id="patch_20">
    <path d="M 301.339053 205.407124 
L 362.705405 205.407124 
L 362.705405 211.99764 
L 301.339053 211.99764 
z
" clip-path="url(#p945e41185d)" style="fill: #738292; stroke: #2a2a3a; stroke-width: 0.5; stroke-linejoin: miter"/>
   </g>
   <g id="patch_21">
    <path d="M 301.339053 215.54638 
L 459.81075 215.54638 
L 459.81075 222.136895 
L 301.339053 222.136895 
z
" clip-path="url(#p945e41185d)" style="fill: #33437d; stroke: #2a2a3a; stroke-width: 0.5; stroke-linejoin: miter"/>
   </g>
   <g id="patch_22">
    <path d="M 301.339053 225.685635 
L 376.158594 225.685635 
L 376.158594 232.276151 
L 301.339053 232.276151 
z
" clip-path="url(#p945e41185d)" style="fill: #00d8e1; stroke: #2a2a3a; stroke-width: 0.5; stroke-linejoin: miter"/>
   </g>
   <g id="matplotlib.axis_1">
    <g id="xtick_1">
     <g id="line2d_1">
      <defs>
       <path id="m37f3913626" d="M 0 0 
L 0 3.5 
" style="stroke: #808098; stroke-width: 0.8"/>
      </defs>
      <g>
       <use xlink:href="#m37f3913626" x="101.974463" y="242.237969" style="fill: #808098; stroke: #808098; stroke-width: 0.8"/>
      </g>
     </g>
     <g id="text_1">
      <!-- −0.6 -->
      <g style="fill: #808098" transform="translate(91.047197 256.076562) scale(0.09 -0.09)">
       <defs>
        <path id="DejaVuSans-2212" d="M 678 2272 
L 4684 2272 
L 4684 1741 
L 678 1741 
L 678 2272 
z
" transform="scale(0.015625)"/>
        <path id="DejaVuSans-30" d="M 2034 4250 
Q 1547 4250 1301 3770 
Q 1056 3291 1056 2328 
Q 1056 1369 1301 889 
Q 1547 409 2034 409 
Q 2525 409 2770 889 
Q 3016 1369 3016 2328 
Q 3016 3291 2770 3770 
Q 2525 4250 2034 4250 
z
M 2034 4750 
Q 2819 4750 3233 4129 
Q 3647 3509 3647 2328 
Q 3647 1150 3233 529 
Q 2819 -91 2034 -91 
Q 1250 -91 836 529 
Q 422 1150 422 2328 
Q 422 3509 836 4129 
Q 1250 4750 2034 4750 
z
" transform="scale(0.015625)"/>
        <path id="DejaVuSans-2e" d="M 684 794 
L 1344 794 
L 1344 0 
L 684 0 
L 684 794 
z
" transform="scale(0.015625)"/>
        <path id="DejaVuSans-36" d="M 2113 2584 
Q 1688 2584 1439 2293 
Q 1191 2003 1191 1497 
Q 1191 994 1439 701 
Q 1688 409 2113 409 
Q 2538 409 2786 701 
Q 3034 994 3034 1497 
Q 3034 2003 2786 2293 
Q 2538 2584 2113 2584 
z
M 3366 4563 
L 3366 3988 
Q 3128 4100 2886 4159 
Q 2644 4219 2406 4219 
Q 1781 4219 1451 3797 
Q 1122 3375 1075 2522 
Q 1259 2794 1537 2939 
Q 1816 3084 2150 3084 
Q 2853 3084 3261 2657 
Q 3669 2231 3669 1497 
Q 3669 778 3244 343 
Q 2819 -91 2113 -91 
Q 1303 -91 875 529 
Q 447 1150 447 2328 
Q 447 3434 972 4092 
Q 1497 4750 2381 4750 
Q 2619 4750 2861 4703 
Q 3103 4656 3366 4563 
z
" transform="scale(0.015625)"/>
       </defs>
       <use xlink:href="#DejaVuSans-2212"/>
       <use xlink:href="#DejaVuSans-30" transform="translate(83.789062 0)"/>
       <use xlink:href="#DejaVuSans-2e" transform="translate(147.412109 0)"/>
       <use xlink:href="#DejaVuSans-36" transform="translate(179.199219 0)"/>
      </g>
     </g>
    </g>
    <g id="xtick_2">
     <g id="line2d_2">
      <g>
       <use xlink:href="#m37f3913626" x="168.429326" y="242.237969" style="fill: #808098; stroke: #808098; stroke-width: 0.8"/>
      </g>
     </g>
     <g id="text_2">
      <!-- −0.4 -->
      <g style="fill: #808098" transform="translate(157.502061 256.076562) scale(0.09 -0.09)">
       <defs>
        <path id="DejaVuSans-34" d="M 2419 4116 
L 825 1625 
L 2419 1625 
L 2419 4116 
z
M 2253 4666 
L 3047 4666 
L 3047 1625 
L 3713 1625 
L 3713 1100 
L 3047 1100 
L 3047 0 
L 2419 0 
L 2419 1100 
L 313 1100 
L 313 1709 
L 2253 4666 
z
" transform="scale(0.015625)"/>
       </defs>
       <use xlink:href="#DejaVuSans-2212"/>
       <use xlink:href="#DejaVuSans-30" transform="translate(83.789062 0)"/>
       <use xlink:href="#DejaVuSans-2e" transform="translate(147.412109 0)"/>
       <use xlink:href="#DejaVuSans-34" transform="translate(179.199219 0)"/>
      </g>
     </g>
    </g>
    <g id="xtick_3">
     <g id="line2d_3">
      <g>
       <use xlink:href="#m37f3913626" x="234.88419" y="242.237969" style="fill: #808098; stroke: #808098; stroke-width: 0.8"/>
      </g>
     </g>
     <g id="text_3">
      <!-- −0.2 -->
      <g style="fill: #808098" transform="translate(223.956924 256.076562) scale(0.09 -0.09)">
       <defs>
        <path id="DejaVuSans-32" d="M 1228 531 
L 3431 531 
L 3431 0 
L 469 0 
L 469 531 
Q 828 903 1448 1529 
Q 2069 2156 2228 2338 
Q 2531 2678 2651 2914 
Q 2772 3150 2772 3378 
Q 2772 3750 2511 3984 
Q 2250 4219 1831 4219 
Q 1534 4219 1204 4116 
Q 875 4013 500 3803 
L 500 4441 
Q 881 4594 1212 4672 
Q 1544 4750 1819 4750 
Q 2544 4750 2975 4387 
Q 3406 4025 3406 3419 
Q 3406 3131 3298 2873 
Q 3191 2616 2906 2266 
Q 2828 2175 2409 1742 
Q 1991 1309 1228 531 
z
" transform="scale(0.015625)"/>
       </defs>
       <use xlink:href="#DejaVuSans-2212"/>
       <use xlink:href="#DejaVuSans-30" transform="translate(83.789062 0)"/>
       <use xlink:href="#DejaVuSans-2e" transform="translate(147.412109 0)"/>
       <use xlink:href="#DejaVuSans-32" transform="translate(179.199219 0)"/>
      </g>
     </g>
    </g>
    <g id="xtick_4">
     <g id="line2d_4">
      <g>
       <use xlink:href="#m37f3913626" x="301.339053" y="242.237969" style="fill: #808098; stroke: #808098; stroke-width: 0.8"/>
      </g>
     </g>
     <g id="text_4">
      <!-- 0.0 -->
      <g style="fill: #808098" transform="translate(294.182647 256.076562) scale(0.09 -0.09)">
       <use xlink:href="#DejaVuSans-30"/>
       <use xlink:href="#DejaVuSans-2e" transform="translate(63.623047 0)"/>
       <use xlink:href="#DejaVuSans-30" transform="translate(95.410156 0)"/>
      </g>
     </g>
    </g>
    <g id="xtick_5">
     <g id="line2d_5">
      <g>
       <use xlink:href="#m37f3913626" x="367.793917" y="242.237969" style="fill: #808098; stroke: #808098; stroke-width: 0.8"/>
      </g>
     </g>
     <g id="text_5">
      <!-- 0.2 -->
      <g style="fill: #808098" transform="translate(360.637511 256.076562) scale(0.09 -0.09)">
       <use xlink:href="#DejaVuSans-30"/>
       <use xlink:href="#DejaVuSans-2e" transform="translate(63.623047 0)"/>
       <use xlink:href="#DejaVuSans-32" transform="translate(95.410156 0)"/>
      </g>
     </g>
    </g>
    <g id="xtick_6">
     <g id="line2d_6">
      <g>
       <use xlink:href="#m37f3913626" x="434.24878" y="242.237969" style="fill: #808098; stroke: #808098; stroke-width: 0.8"/>
      </g>
     </g>
     <g id="text_6">
      <!-- 0.4 -->
      <g style="fill: #808098" transform="translate(427.092374 256.076562) scale(0.09 -0.09)">
       <use xlink:href="#DejaVuSans-30"/>
       <use xlink:href="#DejaVuSans-2e" transform="translate(63.623047 0)"/>
       <use xlink:href="#DejaVuSans-34" transform="translate(95.410156 0)"/>
      </g>
     </g>
    </g>
    <g id="text_7">
     <!-- Cosine similarity between current-speaker and other-speaker vectors -->
     <g style="fill: #b0b0c8" transform="translate(77.742012 270.306562) scale(0.11 -0.11)">
      <defs>
       <path id="DejaVuSans-43" d="M 4122 4306 
L 4122 3641 
Q 3803 3938 3442 4084 
Q 3081 4231 2675 4231 
Q 1875 4231 1450 3742 
Q 1025 3253 1025 2328 
Q 1025 1406 1450 917 
Q 1875 428 2675 428 
Q 3081 428 3442 575 
Q 3803 722 4122 1019 
L 4122 359 
Q 3791 134 3420 21 
Q 3050 -91 2638 -91 
Q 1578 -91 968 557 
Q 359 1206 359 2328 
Q 359 3453 968 4101 
Q 1578 4750 2638 4750 
Q 3056 4750 3426 4639 
Q 3797 4528 4122 4306 
z
" transform="scale(0.015625)"/>
       <path id="DejaVuSans-6f" d="M 1959 3097 
Q 1497 3097 1228 2736 
Q 959 2375 959 1747 
Q 959 1119 1226 758 
Q 1494 397 1959 397 
Q 2419 397 2687 759 
Q 2956 1122 2956 1747 
Q 2956 2369 2687 2733 
Q 2419 3097 1959 3097 
z
M 1959 3584 
Q 2709 3584 3137 3096 
Q 3566 2609 3566 1747 
Q 3566 888 3137 398 
Q 2709 -91 1959 -91 
Q 1206 -91 779 398 
Q 353 888 353 1747 
Q 353 2609 779 3096 
Q 1206 3584 1959 3584 
z
" transform="scale(0.015625)"/>
       <path id="DejaVuSans-73" d="M 2834 3397 
L 2834 2853 
Q 2591 2978 2328 3040 
Q 2066 3103 1784 3103 
Q 1356 3103 1142 2972 
Q 928 2841 928 2578 
Q 928 2378 1081 2264 
Q 1234 2150 1697 2047 
L 1894 2003 
Q 2506 1872 2764 1633 
Q 3022 1394 3022 966 
Q 3022 478 2636 193 
Q 2250 -91 1575 -91 
Q 1294 -91 989 -36 
Q 684 19 347 128 
L 347 722 
Q 666 556 975 473 
Q 1284 391 1588 391 
Q 1994 391 2212 530 
Q 2431 669 2431 922 
Q 2431 1156 2273 1281 
Q 2116 1406 1581 1522 
L 1381 1569 
Q 847 1681 609 1914 
Q 372 2147 372 2553 
Q 372 3047 722 3315 
Q 1072 3584 1716 3584 
Q 2034 3584 2315 3537 
Q 2597 3491 2834 3397 
z
" transform="scale(0.015625)"/>
       <path id="DejaVuSans-69" d="M 603 3500 
L 1178 3500 
L 1178 0 
L 603 0 
L 603 3500 
z
M 603 4863 
L 1178 4863 
L 1178 4134 
L 603 4134 
L 603 4863 
z
" transform="scale(0.015625)"/>
       <path id="DejaVuSans-6e" d="M 3513 2113 
L 3513 0 
L 2938 0 
L 2938 2094 
Q 2938 2591 2744 2837 
Q 2550 3084 2163 3084 
Q 1697 3084 1428 2787 
Q 1159 2491 1159 1978 
L 1159 0 
L 581 0 
L 581 3500 
L 1159 3500 
L 1159 2956 
Q 1366 3272 1645 3428 
Q 1925 3584 2291 3584 
Q 2894 3584 3203 3211 
Q 3513 2838 3513 2113 
z
" transform="scale(0.015625)"/>
       <path id="DejaVuSans-65" d="M 3597 1894 
L 3597 1613 
L 953 1613 
Q 991 1019 1311 708 
Q 1631 397 2203 397 
Q 2534 397 2845 478 
Q 3156 559 3463 722 
L 3463 178 
Q 3153 47 2828 -22 
Q 2503 -91 2169 -91 
Q 1331 -91 842 396 
Q 353 884 353 1716 
Q 353 2575 817 3079 
Q 1281 3584 2069 3584 
Q 2775 3584 3186 3129 
Q 3597 2675 3597 1894 
z
M 3022 2063 
Q 3016 2534 2758 2815 
Q 2500 3097 2075 3097 
Q 1594 3097 1305 2825 
Q 1016 2553 972 2059 
L 3022 2063 
z
" transform="scale(0.015625)"/>
       <path id="DejaVuSans-20" transform="scale(0.015625)"/>
       <path id="DejaVuSans-6d" d="M 3328 2828 
Q 3544 3216 3844 3400 
Q 4144 3584 4550 3584 
Q 5097 3584 5394 3201 
Q 5691 2819 5691 2113 
L 5691 0 
L 5113 0 
L 5113 2094 
Q 5113 2597 4934 2840 
Q 4756 3084 4391 3084 
Q 3944 3084 3684 2787 
Q 3425 2491 3425 1978 
L 3425 0 
L 2847 0 
L 2847 2094 
Q 2847 2600 2669 2842 
Q 2491 3084 2119 3084 
Q 1678 3084 1418 2786 
Q 1159 2488 1159 1978 
L 1159 0 
L 581 0 
L 581 3500 
L 1159 3500 
L 1159 2956 
Q 1356 3278 1631 3431 
Q 1906 3584 2284 3584 
Q 2666 3584 2933 3390 
Q 3200 3197 3328 2828 
z
" transform="scale(0.015625)"/>
       <path id="DejaVuSans-6c" d="M 603 4863 
L 1178 4863 
L 1178 0 
L 603 0 
L 603 4863 
z
" transform="scale(0.015625)"/>
       <path id="DejaVuSans-61" d="M 2194 1759 
Q 1497 1759 1228 1600 
Q 959 1441 959 1056 
Q 959 750 1161 570 
Q 1363 391 1709 391 
Q 2188 391 2477 730 
Q 2766 1069 2766 1631 
L 2766 1759 
L 2194 1759 
z
M 3341 1997 
L 3341 0 
L 2766 0 
L 2766 531 
Q 2569 213 2275 61 
Q 1981 -91 1556 -91 
Q 1019 -91 701 211 
Q 384 513 384 1019 
Q 384 1609 779 1909 
Q 1175 2209 1959 2209 
L 2766 2209 
L 2766 2266 
Q 2766 2663 2505 2880 
Q 2244 3097 1772 3097 
Q 1472 3097 1187 3025 
Q 903 2953 641 2809 
L 641 3341 
Q 956 3463 1253 3523 
Q 1550 3584 1831 3584 
Q 2591 3584 2966 3190 
Q 3341 2797 3341 1997 
z
" transform="scale(0.015625)"/>
       <path id="DejaVuSans-72" d="M 2631 2963 
Q 2534 3019 2420 3045 
Q 2306 3072 2169 3072 
Q 1681 3072 1420 2755 
Q 1159 2438 1159 1844 
L 1159 0 
L 581 0 
L 581 3500 
L 1159 3500 
L 1159 2956 
Q 1341 3275 1631 3429 
Q 1922 3584 2338 3584 
Q 2397 3584 2469 3576 
Q 2541 3569 2628 3553 
L 2631 2963 
z
" transform="scale(0.015625)"/>
       <path id="DejaVuSans-74" d="M 1172 4494 
L 1172 3500 
L 2356 3500 
L 2356 3053 
L 1172 3053 
L 1172 1153 
Q 1172 725 1289 603 
Q 1406 481 1766 481 
L 2356 481 
L 2356 0 
L 1766 0 
Q 1100 0 847 248 
Q 594 497 594 1153 
L 594 3053 
L 172 3053 
L 172 3500 
L 594 3500 
L 594 4494 
L 1172 4494 
z
" transform="scale(0.015625)"/>
       <path id="DejaVuSans-79" d="M 2059 -325 
Q 1816 -950 1584 -1140 
Q 1353 -1331 966 -1331 
L 506 -1331 
L 506 -850 
L 844 -850 
Q 1081 -850 1212 -737 
Q 1344 -625 1503 -206 
L 1606 56 
L 191 3500 
L 800 3500 
L 1894 763 
L 2988 3500 
L 3597 3500 
L 2059 -325 
z
" transform="scale(0.015625)"/>
       <path id="DejaVuSans-62" d="M 3116 1747 
Q 3116 2381 2855 2742 
Q 2594 3103 2138 3103 
Q 1681 3103 1420 2742 
Q 1159 2381 1159 1747 
Q 1159 1113 1420 752 
Q 1681 391 2138 391 
Q 2594 391 2855 752 
Q 3116 1113 3116 1747 
z
M 1159 2969 
Q 1341 3281 1617 3432 
Q 1894 3584 2278 3584 
Q 2916 3584 3314 3078 
Q 3713 2572 3713 1747 
Q 3713 922 3314 415 
Q 2916 -91 2278 -91 
Q 1894 -91 1617 61 
Q 1341 213 1159 525 
L 1159 0 
L 581 0 
L 581 4863 
L 1159 4863 
L 1159 2969 
z
" transform="scale(0.015625)"/>
       <path id="DejaVuSans-77" d="M 269 3500 
L 844 3500 
L 1563 769 
L 2278 3500 
L 2956 3500 
L 3675 769 
L 4391 3500 
L 4966 3500 
L 4050 0 
L 3372 0 
L 2619 2869 
L 1863 0 
L 1184 0 
L 269 3500 
z
" transform="scale(0.015625)"/>
       <path id="DejaVuSans-63" d="M 3122 3366 
L 3122 2828 
Q 2878 2963 2633 3030 
Q 2388 3097 2138 3097 
Q 1578 3097 1268 2742 
Q 959 2388 959 1747 
Q 959 1106 1268 751 
Q 1578 397 2138 397 
Q 2388 397 2633 464 
Q 2878 531 3122 666 
L 3122 134 
Q 2881 22 2623 -34 
Q 2366 -91 2075 -91 
Q 1284 -91 818 406 
Q 353 903 353 1747 
Q 353 2603 823 3093 
Q 1294 3584 2113 3584 
Q 2378 3584 2631 3529 
Q 2884 3475 3122 3366 
z
" transform="scale(0.015625)"/>
       <path id="DejaVuSans-75" d="M 544 1381 
L 544 3500 
L 1119 3500 
L 1119 1403 
Q 1119 906 1312 657 
Q 1506 409 1894 409 
Q 2359 409 2629 706 
Q 2900 1003 2900 1516 
L 2900 3500 
L 3475 3500 
L 3475 0 
L 2900 0 
L 2900 538 
Q 2691 219 2414 64 
Q 2138 -91 1772 -91 
Q 1169 -91 856 284 
Q 544 659 544 1381 
z
M 1991 3584 
L 1991 3584 
z
" transform="scale(0.015625)"/>
       <path id="DejaVuSans-2d" d="M 313 2009 
L 1997 2009 
L 1997 1497 
L 313 1497 
L 313 2009 
z
" transform="scale(0.015625)"/>
       <path id="DejaVuSans-70" d="M 1159 525 
L 1159 -1331 
L 581 -1331 
L 581 3500 
L 1159 3500 
L 1159 2969 
Q 1341 3281 1617 3432 
Q 1894 3584 2278 3584 
Q 2916 3584 3314 3078 
Q 3713 2572 3713 1747 
Q 3713 922 3314 415 
Q 2916 -91 2278 -91 
Q 1894 -91 1617 61 
Q 1341 213 1159 525 
z
M 3116 1747 
Q 3116 2381 2855 2742 
Q 2594 3103 2138 3103 
Q 1681 3103 1420 2742 
Q 1159 2381 1159 1747 
Q 1159 1113 1420 752 
Q 1681 391 2138 391 
Q 2594 391 2855 752 
Q 3116 1113 3116 1747 
z
" transform="scale(0.015625)"/>
       <path id="DejaVuSans-6b" d="M 581 4863 
L 1159 4863 
L 1159 1991 
L 2875 3500 
L 3609 3500 
L 1753 1863 
L 3688 0 
L 2938 0 
L 1159 1709 
L 1159 0 
L 581 0 
L 581 4863 
z
" transform="scale(0.015625)"/>
       <path id="DejaVuSans-64" d="M 2906 2969 
L 2906 4863 
L 3481 4863 
L 3481 0 
L 2906 0 
L 2906 525 
Q 2725 213 2448 61 
Q 2172 -91 1784 -91 
Q 1150 -91 751 415 
Q 353 922 353 1747 
Q 353 2572 751 3078 
Q 1150 3584 1784 3584 
Q 2172 3584 2448 3432 
Q 2725 3281 2906 2969 
z
M 947 1747 
Q 947 1113 1208 752 
Q 1469 391 1925 391 
Q 2381 391 2643 752 
Q 2906 1113 2906 1747 
Q 2906 2381 2643 2742 
Q 2381 3103 1925 3103 
Q 1469 3103 1208 2742 
Q 947 2381 947 1747 
z
" transform="scale(0.015625)"/>
       <path id="DejaVuSans-68" d="M 3513 2113 
L 3513 0 
L 2938 0 
L 2938 2094 
Q 2938 2591 2744 2837 
Q 2550 3084 2163 3084 
Q 1697 3084 1428 2787 
Q 1159 2491 1159 1978 
L 1159 0 
L 581 0 
L 581 4863 
L 1159 4863 
L 1159 2956 
Q 1366 3272 1645 3428 
Q 1925 3584 2291 3584 
Q 2894 3584 3203 3211 
Q 3513 2838 3513 2113 
z
" transform="scale(0.015625)"/>
       <path id="DejaVuSans-76" d="M 191 3500 
L 800 3500 
L 1894 563 
L 2988 3500 
L 3597 3500 
L 2284 0 
L 1503 0 
L 191 3500 
z
" transform="scale(0.015625)"/>
      </defs>
      <use xlink:href="#DejaVuSans-43"/>
      <use xlink:href="#DejaVuSans-6f" transform="translate(69.824219 0)"/>
      <use xlink:href="#DejaVuSans-73" transform="translate(131.005859 0)"/>
      <use xlink:href="#DejaVuSans-69" transform="translate(183.105469 0)"/>
      <use xlink:href="#DejaVuSans-6e" transform="translate(210.888672 0)"/>
      <use xlink:href="#DejaVuSans-65" transform="translate(274.267578 0)"/>
      <use xlink:href="#DejaVuSans-20" transform="translate(335.791016 0)"/>
      <use xlink:href="#DejaVuSans-73" transform="translate(367.578125 0)"/>
      <use xlink:href="#DejaVuSans-69" transform="translate(419.677734 0)"/>
      <use xlink:href="#DejaVuSans-6d" transform="translate(447.460938 0)"/>
      <use xlink:href="#DejaVuSans-69" transform="translate(544.873047 0)"/>
      <use xlink:href="#DejaVuSans-6c" transform="translate(572.65625 0)"/>
      <use xlink:href="#DejaVuSans-61" transform="translate(600.439453 0)"/>
      <use xlink:href="#DejaVuSans-72" transform="translate(661.71875 0)"/>
      <use xlink:href="#DejaVuSans-69" transform="translate(702.832031 0)"/>
      <use xlink:href="#DejaVuSans-74" transform="translate(730.615234 0)"/>
      <use xlink:href="#DejaVuSans-79" transform="translate(769.824219 0)"/>
      <use xlink:href="#DejaVuSans-20" transform="translate(829.003906 0)"/>
      <use xlink:href="#DejaVuSans-62" transform="translate(860.791016 0)"/>
      <use xlink:href="#DejaVuSans-65" transform="translate(924.267578 0)"/>
      <use xlink:href="#DejaVuSans-74" transform="translate(985.791016 0)"/>
      <use xlink:href="#DejaVuSans-77" transform="translate(1025 0)"/>
      <use xlink:href="#DejaVuSans-65" transform="translate(1106.787109 0)"/>
      <use xlink:href="#DejaVuSans-65" transform="translate(1168.310547 0)"/>
      <use xlink:href="#DejaVuSans-6e" transform="translate(1229.833984 0)"/>
      <use xlink:href="#DejaVuSans-20" transform="translate(1293.212891 0)"/>
      <use xlink:href="#DejaVuSans-63" transform="translate(1325 0)"/>
      <use xlink:href="#DejaVuSans-75" transform="translate(1379.980469 0)"/>
      <use xlink:href="#DejaVuSans-72" transform="translate(1443.359375 0)"/>
      <use xlink:href="#DejaVuSans-72" transform="translate(1482.722656 0)"/>
      <use xlink:href="#DejaVuSans-65" transform="translate(1521.585938 0)"/>
      <use xlink:href="#DejaVuSans-6e" transform="translate(1583.109375 0)"/>
      <use xlink:href="#DejaVuSans-74" transform="translate(1646.488281 0)"/>
      <use xlink:href="#DejaVuSans-2d" transform="translate(1685.697266 0)"/>
      <use xlink:href="#DejaVuSans-73" transform="translate(1721.78125 0)"/>
      <use xlink:href="#DejaVuSans-70" transform="translate(1773.880859 0)"/>
      <use xlink:href="#DejaVuSans-65" transform="translate(1837.357422 0)"/>
      <use xlink:href="#DejaVuSans-61" transform="translate(1898.880859 0)"/>
      <use xlink:href="#DejaVuSans-6b" transform="translate(1960.160156 0)"/>
      <use xlink:href="#DejaVuSans-65" transform="translate(2014.445312 0)"/>
      <use xlink:href="#DejaVuSans-72" transform="translate(2075.96875 0)"/>
      <use xlink:href="#DejaVuSans-20" transform="translate(2117.082031 0)"/>
      <use xlink:href="#DejaVuSans-61" transform="translate(2148.869141 0)"/>
      <use xlink:href="#DejaVuSans-6e" transform="translate(2210.148438 0)"/>
      <use xlink:href="#DejaVuSans-64" transform="translate(2273.527344 0)"/>
      <use xlink:href="#DejaVuSans-20" transform="translate(2337.003906 0)"/>
      <use xlink:href="#DejaVuSans-6f" transform="translate(2368.791016 0)"/>
      <use xlink:href="#DejaVuSans-74" transform="translate(2429.972656 0)"/>
      <use xlink:href="#DejaVuSans-68" transform="translate(2469.181641 0)"/>
      <use xlink:href="#DejaVuSans-65" transform="translate(2532.560547 0)"/>
      <use xlink:href="#DejaVuSans-72" transform="translate(2594.083984 0)"/>
      <use xlink:href="#DejaVuSans-2d" transform="translate(2628.822266 0)"/>
      <use xlink:href="#DejaVuSans-73" transform="translate(2664.90625 0)"/>
      <use xlink:href="#DejaVuSans-70" transform="translate(2717.005859 0)"/>
      <use xlink:href="#DejaVuSans-65" transform="translate(2780.482422 0)"/>
      <use xlink:href="#DejaVuSans-61" transform="translate(2842.005859 0)"/>
      <use xlink:href="#DejaVuSans-6b" transform="translate(2903.285156 0)"/>
      <use xlink:href="#DejaVuSans-65" transform="translate(2957.570312 0)"/>
      <use xlink:href="#DejaVuSans-72" transform="translate(3019.09375 0)"/>
      <use xlink:href="#DejaVuSans-20" transform="translate(3060.207031 0)"/>
      <use xlink:href="#DejaVuSans-76" transform="translate(3091.994141 0)"/>
      <use xlink:href="#DejaVuSans-65" transform="translate(3151.173828 0)"/>
      <use xlink:href="#DejaVuSans-63" transform="translate(3212.697266 0)"/>
      <use xlink:href="#DejaVuSans-74" transform="translate(3267.677734 0)"/>
      <use xlink:href="#DejaVuSans-6f" transform="translate(3306.886719 0)"/>
      <use xlink:href="#DejaVuSans-72" transform="translate(3368.068359 0)"/>
      <use xlink:href="#DejaVuSans-73" transform="translate(3409.181641 0)"/>
     </g>
    </g>
   </g>
   <g id="matplotlib.axis_2">
    <g id="ytick_1">
     <g id="line2d_7">
      <defs>
       <path id="m858e120c0f" d="M 0 0 
L -3.5 0 
" style="stroke: #808098; stroke-width: 0.8"/>
      </defs>
      <g>
       <use xlink:href="#m858e120c0f" x="68.747031" y="36.335045" style="fill: #808098; stroke: #808098; stroke-width: 0.8"/>
      </g>
     </g>
     <g id="text_8">
      <!-- afraid -->
      <g style="fill: #808098" transform="translate(35.634375 39.754342) scale(0.09 -0.09)">
       <defs>
        <path id="DejaVuSans-66" d="M 2375 4863 
L 2375 4384 
L 1825 4384 
Q 1516 4384 1395 4259 
Q 1275 4134 1275 3809 
L 1275 3500 
L 2222 3500 
L 2222 3053 
L 1275 3053 
L 1275 0 
L 697 0 
L 697 3053 
L 147 3053 
L 147 3500 
L 697 3500 
L 697 3744 
Q 697 4328 969 4595 
Q 1241 4863 1831 4863 
L 2375 4863 
z
" transform="scale(0.015625)"/>
       </defs>
       <use xlink:href="#DejaVuSans-61"/>
       <use xlink:href="#DejaVuSans-66" transform="translate(61.279297 0)"/>
       <use xlink:href="#DejaVuSans-72" transform="translate(96.484375 0)"/>
       <use xlink:href="#DejaVuSans-61" transform="translate(137.597656 0)"/>
       <use xlink:href="#DejaVuSans-69" transform="translate(198.876953 0)"/>
       <use xlink:href="#DejaVuSans-64" transform="translate(226.660156 0)"/>
      </g>
     </g>
    </g>
    <g id="ytick_2">
     <g id="line2d_8">
      <g>
       <use xlink:href="#m858e120c0f" x="68.747031" y="46.4743" style="fill: #808098; stroke: #808098; stroke-width: 0.8"/>
      </g>
     </g>
     <g id="text_9">
      <!-- angry -->
      <g style="fill: #808098" transform="translate(35.787656 49.893597) scale(0.09 -0.09)">
       <defs>
        <path id="DejaVuSans-67" d="M 2906 1791 
Q 2906 2416 2648 2759 
Q 2391 3103 1925 3103 
Q 1463 3103 1205 2759 
Q 947 2416 947 1791 
Q 947 1169 1205 825 
Q 1463 481 1925 481 
Q 2391 481 2648 825 
Q 2906 1169 2906 1791 
z
M 3481 434 
Q 3481 -459 3084 -895 
Q 2688 -1331 1869 -1331 
Q 1566 -1331 1297 -1286 
Q 1028 -1241 775 -1147 
L 775 -588 
Q 1028 -725 1275 -790 
Q 1522 -856 1778 -856 
Q 2344 -856 2625 -561 
Q 2906 -266 2906 331 
L 2906 616 
Q 2728 306 2450 153 
Q 2172 0 1784 0 
Q 1141 0 747 490 
Q 353 981 353 1791 
Q 353 2603 747 3093 
Q 1141 3584 1784 3584 
Q 2172 3584 2450 3431 
Q 2728 3278 2906 2969 
L 2906 3500 
L 3481 3500 
L 3481 434 
z
" transform="scale(0.015625)"/>
       </defs>
       <use xlink:href="#DejaVuSans-61"/>
       <use xlink:href="#DejaVuSans-6e" transform="translate(61.279297 0)"/>
       <use xlink:href="#DejaVuSans-67" transform="translate(124.658203 0)"/>
       <use xlink:href="#DejaVuSans-72" transform="translate(188.134766 0)"/>
       <use xlink:href="#DejaVuSans-79" transform="translate(229.248047 0)"/>
      </g>
     </g>
    </g>
    <g id="ytick_3">
     <g id="line2d_9">
      <g>
       <use xlink:href="#m858e120c0f" x="68.747031" y="56.613555" style="fill: #808098; stroke: #808098; stroke-width: 0.8"/>
      </g>
     </g>
     <g id="text_10">
      <!-- brooding -->
      <g style="fill: #808098" transform="translate(21.891094 60.032852) scale(0.09 -0.09)">
       <use xlink:href="#DejaVuSans-62"/>
       <use xlink:href="#DejaVuSans-72" transform="translate(63.476562 0)"/>
       <use xlink:href="#DejaVuSans-6f" transform="translate(102.339844 0)"/>
       <use xlink:href="#DejaVuSans-6f" transform="translate(163.521484 0)"/>
       <use xlink:href="#DejaVuSans-64" transform="translate(224.703125 0)"/>
       <use xlink:href="#DejaVuSans-69" transform="translate(288.179688 0)"/>
       <use xlink:href="#DejaVuSans-6e" transform="translate(315.962891 0)"/>
       <use xlink:href="#DejaVuSans-67" transform="translate(379.341797 0)"/>
      </g>
     </g>
    </g>
    <g id="ytick_4">
     <g id="line2d_10">
      <g>
       <use xlink:href="#m858e120c0f" x="68.747031" y="66.75281" style="fill: #808098; stroke: #808098; stroke-width: 0.8"/>
      </g>
     </g>
     <g id="text_11">
      <!-- calm -->
      <g style="fill: #808098" transform="translate(40.01625 70.172107) scale(0.09 -0.09)">
       <use xlink:href="#DejaVuSans-63"/>
       <use xlink:href="#DejaVuSans-61" transform="translate(54.980469 0)"/>
       <use xlink:href="#DejaVuSans-6c" transform="translate(116.259766 0)"/>
       <use xlink:href="#DejaVuSans-6d" transform="translate(144.042969 0)"/>
      </g>
     </g>
    </g>
    <g id="ytick_5">
     <g id="line2d_11">
      <g>
       <use xlink:href="#m858e120c0f" x="68.747031" y="76.892065" style="fill: #808098; stroke: #808098; stroke-width: 0.8"/>
      </g>
     </g>
     <g id="text_12">
      <!-- confident -->
      <g style="fill: #808098" transform="translate(19.435781 80.311362) scale(0.09 -0.09)">
       <use xlink:href="#DejaVuSans-63"/>
       <use xlink:href="#DejaVuSans-6f" transform="translate(54.980469 0)"/>
       <use xlink:href="#DejaVuSans-6e" transform="translate(116.162109 0)"/>
       <use xlink:href="#DejaVuSans-66" transform="translate(179.541016 0)"/>
       <use xlink:href="#DejaVuSans-69" transform="translate(214.746094 0)"/>
       <use xlink:href="#DejaVuSans-64" transform="translate(242.529297 0)"/>
       <use xlink:href="#DejaVuSans-65" transform="translate(306.005859 0)"/>
       <use xlink:href="#DejaVuSans-6e" transform="translate(367.529297 0)"/>
       <use xlink:href="#DejaVuSans-74" transform="translate(430.908203 0)"/>
      </g>
     </g>
    </g>
    <g id="ytick_6">
     <g id="line2d_12">
      <g>
       <use xlink:href="#m858e120c0f" x="68.747031" y="87.031321" style="fill: #808098; stroke: #808098; stroke-width: 0.8"/>
      </g>
     </g>
     <g id="text_13">
      <!-- curious -->
      <g style="fill: #808098" transform="translate(28.995469 90.450617) scale(0.09 -0.09)">
       <use xlink:href="#DejaVuSans-63"/>
       <use xlink:href="#DejaVuSans-75" transform="translate(54.980469 0)"/>
       <use xlink:href="#DejaVuSans-72" transform="translate(118.359375 0)"/>
       <use xlink:href="#DejaVuSans-69" transform="translate(159.472656 0)"/>
       <use xlink:href="#DejaVuSans-6f" transform="translate(187.255859 0)"/>
       <use xlink:href="#DejaVuSans-75" transform="translate(248.4375 0)"/>
       <use xlink:href="#DejaVuSans-73" transform="translate(311.816406 0)"/>
      </g>
     </g>
    </g>
    <g id="ytick_7">
     <g id="line2d_13">
      <g>
       <use xlink:href="#m858e120c0f" x="68.747031" y="97.170576" style="fill: #808098; stroke: #808098; stroke-width: 0.8"/>
      </g>
     </g>
     <g id="text_14">
      <!-- desperate -->
      <g style="fill: #808098" transform="translate(16.274531 100.589873) scale(0.09 -0.09)">
       <use xlink:href="#DejaVuSans-64"/>
       <use xlink:href="#DejaVuSans-65" transform="translate(63.476562 0)"/>
       <use xlink:href="#DejaVuSans-73" transform="translate(125 0)"/>
       <use xlink:href="#DejaVuSans-70" transform="translate(177.099609 0)"/>
       <use xlink:href="#DejaVuSans-65" transform="translate(240.576172 0)"/>
       <use xlink:href="#DejaVuSans-72" transform="translate(302.099609 0)"/>
       <use xlink:href="#DejaVuSans-61" transform="translate(343.212891 0)"/>
       <use xlink:href="#DejaVuSans-74" transform="translate(404.492188 0)"/>
       <use xlink:href="#DejaVuSans-65" transform="translate(443.701172 0)"/>
      </g>
     </g>
    </g>
    <g id="ytick_8">
     <g id="line2d_14">
      <g>
       <use xlink:href="#m858e120c0f" x="68.747031" y="107.309831" style="fill: #808098; stroke: #808098; stroke-width: 0.8"/>
      </g>
     </g>
     <g id="text_15">
      <!-- enthusiastic -->
      <g style="fill: #808098" transform="translate(7.2 110.729128) scale(0.09 -0.09)">
       <use xlink:href="#DejaVuSans-65"/>
       <use xlink:href="#DejaVuSans-6e" transform="translate(61.523438 0)"/>
       <use xlink:href="#DejaVuSans-74" transform="translate(124.902344 0)"/>
       <use xlink:href="#DejaVuSans-68" transform="translate(164.111328 0)"/>
       <use xlink:href="#DejaVuSans-75" transform="translate(227.490234 0)"/>
       <use xlink:href="#DejaVuSans-73" transform="translate(290.869141 0)"/>
       <use xlink:href="#DejaVuSans-69" transform="translate(342.96875 0)"/>
       <use xlink:href="#DejaVuSans-61" transform="translate(370.751953 0)"/>
       <use xlink:href="#DejaVuSans-73" transform="translate(432.03125 0)"/>
       <use xlink:href="#DejaVuSans-74" transform="translate(484.130859 0)"/>
       <use xlink:href="#DejaVuSans-69" transform="translate(523.339844 0)"/>
       <use xlink:href="#DejaVuSans-63" transform="translate(551.123047 0)"/>
      </g>
     </g>
    </g>
    <g id="ytick_9">
     <g id="line2d_15">
      <g>
       <use xlink:href="#m858e120c0f" x="68.747031" y="117.449086" style="fill: #808098; stroke: #808098; stroke-width: 0.8"/>
      </g>
     </g>
     <g id="text_16">
      <!-- frustrated -->
      <g style="fill: #808098" transform="translate(16.963594 120.868383) scale(0.09 -0.09)">
       <use xlink:href="#DejaVuSans-66"/>
       <use xlink:href="#DejaVuSans-72" transform="translate(35.205078 0)"/>
       <use xlink:href="#DejaVuSans-75" transform="translate(76.318359 0)"/>
       <use xlink:href="#DejaVuSans-73" transform="translate(139.697266 0)"/>
       <use xlink:href="#DejaVuSans-74" transform="translate(191.796875 0)"/>
       <use xlink:href="#DejaVuSans-72" transform="translate(231.005859 0)"/>
       <use xlink:href="#DejaVuSans-61" transform="translate(272.119141 0)"/>
       <use xlink:href="#DejaVuSans-74" transform="translate(333.398438 0)"/>
       <use xlink:href="#DejaVuSans-65" transform="translate(372.607422 0)"/>
       <use xlink:href="#DejaVuSans-64" transform="translate(434.130859 0)"/>
      </g>
     </g>
    </g>
    <g id="ytick_10">
     <g id="line2d_16">
      <g>
       <use xlink:href="#m858e120c0f" x="68.747031" y="127.588341" style="fill: #808098; stroke: #808098; stroke-width: 0.8"/>
      </g>
     </g>
     <g id="text_17">
      <!-- gloomy -->
      <g style="fill: #808098" transform="translate(28.425937 131.007638) scale(0.09 -0.09)">
       <use xlink:href="#DejaVuSans-67"/>
       <use xlink:href="#DejaVuSans-6c" transform="translate(63.476562 0)"/>
       <use xlink:href="#DejaVuSans-6f" transform="translate(91.259766 0)"/>
       <use xlink:href="#DejaVuSans-6f" transform="translate(152.441406 0)"/>
       <use xlink:href="#DejaVuSans-6d" transform="translate(213.623047 0)"/>
       <use xlink:href="#DejaVuSans-79" transform="translate(311.035156 0)"/>
      </g>
     </g>
    </g>
    <g id="ytick_11">
     <g id="line2d_17">
      <g>
       <use xlink:href="#m858e120c0f" x="68.747031" y="137.727596" style="fill: #808098; stroke: #808098; stroke-width: 0.8"/>
      </g>
     </g>
     <g id="text_18">
      <!-- guilty -->
      <g style="fill: #808098" transform="translate(36.473906 141.146893) scale(0.09 -0.09)">
       <use xlink:href="#DejaVuSans-67"/>
       <use xlink:href="#DejaVuSans-75" transform="translate(63.476562 0)"/>
       <use xlink:href="#DejaVuSans-69" transform="translate(126.855469 0)"/>
       <use xlink:href="#DejaVuSans-6c" transform="translate(154.638672 0)"/>
       <use xlink:href="#DejaVuSans-74" transform="translate(182.421875 0)"/>
       <use xlink:href="#DejaVuSans-79" transform="translate(221.630859 0)"/>
      </g>
     </g>
    </g>
    <g id="ytick_12">
     <g id="line2d_18">
      <g>
       <use xlink:href="#m858e120c0f" x="68.747031" y="147.866851" style="fill: #808098; stroke: #808098; stroke-width: 0.8"/>
      </g>
     </g>
     <g id="text_19">
      <!-- happy -->
      <g style="fill: #808098" transform="translate(33.773906 151.286148) scale(0.09 -0.09)">
       <use xlink:href="#DejaVuSans-68"/>
       <use xlink:href="#DejaVuSans-61" transform="translate(63.378906 0)"/>
       <use xlink:href="#DejaVuSans-70" transform="translate(124.658203 0)"/>
       <use xlink:href="#DejaVuSans-70" transform="translate(188.134766 0)"/>
       <use xlink:href="#DejaVuSans-79" transform="translate(251.611328 0)"/>
      </g>
     </g>
    </g>
    <g id="ytick_13">
     <g id="line2d_19">
      <g>
       <use xlink:href="#m858e120c0f" x="68.747031" y="158.006107" style="fill: #808098; stroke: #808098; stroke-width: 0.8"/>
      </g>
     </g>
     <g id="text_20">
      <!-- hopeful -->
      <g style="fill: #808098" transform="translate(27.912656 161.425403) scale(0.09 -0.09)">
       <use xlink:href="#DejaVuSans-68"/>
       <use xlink:href="#DejaVuSans-6f" transform="translate(63.378906 0)"/>
       <use xlink:href="#DejaVuSans-70" transform="translate(124.560547 0)"/>
       <use xlink:href="#DejaVuSans-65" transform="translate(188.037109 0)"/>
       <use xlink:href="#DejaVuSans-66" transform="translate(249.560547 0)"/>
       <use xlink:href="#DejaVuSans-75" transform="translate(284.765625 0)"/>
       <use xlink:href="#DejaVuSans-6c" transform="translate(348.144531 0)"/>
      </g>
     </g>
    </g>
    <g id="ytick_14">
     <g id="line2d_20">
      <g>
       <use xlink:href="#m858e120c0f" x="68.747031" y="168.145362" style="fill: #808098; stroke: #808098; stroke-width: 0.8"/>
      </g>
     </g>
     <g id="text_21">
      <!-- hostile -->
      <g style="fill: #808098" transform="translate(31.78125 171.564659) scale(0.09 -0.09)">
       <use xlink:href="#DejaVuSans-68"/>
       <use xlink:href="#DejaVuSans-6f" transform="translate(63.378906 0)"/>
       <use xlink:href="#DejaVuSans-73" transform="translate(124.560547 0)"/>
       <use xlink:href="#DejaVuSans-74" transform="translate(176.660156 0)"/>
       <use xlink:href="#DejaVuSans-69" transform="translate(215.869141 0)"/>
       <use xlink:href="#DejaVuSans-6c" transform="translate(243.652344 0)"/>
       <use xlink:href="#DejaVuSans-65" transform="translate(271.435547 0)"/>
      </g>
     </g>
    </g>
    <g id="ytick_15">
     <g id="line2d_21">
      <g>
       <use xlink:href="#m858e120c0f" x="68.747031" y="178.284617" style="fill: #808098; stroke: #808098; stroke-width: 0.8"/>
      </g>
     </g>
     <g id="text_22">
      <!-- loving -->
      <g style="fill: #808098" transform="translate(34.495312 181.703914) scale(0.09 -0.09)">
       <use xlink:href="#DejaVuSans-6c"/>
       <use xlink:href="#DejaVuSans-6f" transform="translate(27.783203 0)"/>
       <use xlink:href="#DejaVuSans-76" transform="translate(88.964844 0)"/>
       <use xlink:href="#DejaVuSans-69" transform="translate(148.144531 0)"/>
       <use xlink:href="#DejaVuSans-6e" transform="translate(175.927734 0)"/>
       <use xlink:href="#DejaVuSans-67" transform="translate(239.306641 0)"/>
      </g>
     </g>
    </g>
    <g id="ytick_16">
     <g id="line2d_22">
      <g>
       <use xlink:href="#m858e120c0f" x="68.747031" y="188.423872" style="fill: #808098; stroke: #808098; stroke-width: 0.8"/>
      </g>
     </g>
     <g id="text_23">
      <!-- nervous -->
      <g style="fill: #808098" transform="translate(25.579687 191.843169) scale(0.09 -0.09)">
       <use xlink:href="#DejaVuSans-6e"/>
       <use xlink:href="#DejaVuSans-65" transform="translate(63.378906 0)"/>
       <use xlink:href="#DejaVuSans-72" transform="translate(124.902344 0)"/>
       <use xlink:href="#DejaVuSans-76" transform="translate(166.015625 0)"/>
       <use xlink:href="#DejaVuSans-6f" transform="translate(225.195312 0)"/>
       <use xlink:href="#DejaVuSans-75" transform="translate(286.376953 0)"/>
       <use xlink:href="#DejaVuSans-73" transform="translate(349.755859 0)"/>
      </g>
     </g>
    </g>
    <g id="ytick_17">
     <g id="line2d_23">
      <g>
       <use xlink:href="#m858e120c0f" x="68.747031" y="198.563127" style="fill: #808098; stroke: #808098; stroke-width: 0.8"/>
      </g>
     </g>
     <g id="text_24">
      <!-- proud -->
      <g style="fill: #808098" transform="translate(35.611875 201.982424) scale(0.09 -0.09)">
       <use xlink:href="#DejaVuSans-70"/>
       <use xlink:href="#DejaVuSans-72" transform="translate(63.476562 0)"/>
       <use xlink:href="#DejaVuSans-6f" transform="translate(102.339844 0)"/>
       <use xlink:href="#DejaVuSans-75" transform="translate(163.521484 0)"/>
       <use xlink:href="#DejaVuSans-64" transform="translate(226.900391 0)"/>
      </g>
     </g>
    </g>
    <g id="ytick_18">
     <g id="line2d_24">
      <g>
       <use xlink:href="#m858e120c0f" x="68.747031" y="208.702382" style="fill: #808098; stroke: #808098; stroke-width: 0.8"/>
      </g>
     </g>
     <g id="text_25">
      <!-- reflective -->
      <g style="fill: #808098" transform="translate(19.663594 212.121679) scale(0.09 -0.09)">
       <use xlink:href="#DejaVuSans-72"/>
       <use xlink:href="#DejaVuSans-65" transform="translate(38.863281 0)"/>
       <use xlink:href="#DejaVuSans-66" transform="translate(100.386719 0)"/>
       <use xlink:href="#DejaVuSans-6c" transform="translate(135.591797 0)"/>
       <use xlink:href="#DejaVuSans-65" transform="translate(163.375 0)"/>
       <use xlink:href="#DejaVuSans-63" transform="translate(224.898438 0)"/>
       <use xlink:href="#DejaVuSans-74" transform="translate(279.878906 0)"/>
       <use xlink:href="#DejaVuSans-69" transform="translate(319.087891 0)"/>
       <use xlink:href="#DejaVuSans-76" transform="translate(346.871094 0)"/>
       <use xlink:href="#DejaVuSans-65" transform="translate(406.050781 0)"/>
      </g>
     </g>
    </g>
    <g id="ytick_19">
     <g id="line2d_25">
      <g>
       <use xlink:href="#m858e120c0f" x="68.747031" y="218.841637" style="fill: #808098; stroke: #808098; stroke-width: 0.8"/>
      </g>
     </g>
     <g id="text_26">
      <!-- sad -->
      <g style="fill: #808098" transform="translate(45.829687 222.260934) scale(0.09 -0.09)">
       <use xlink:href="#DejaVuSans-73"/>
       <use xlink:href="#DejaVuSans-61" transform="translate(52.099609 0)"/>
       <use xlink:href="#DejaVuSans-64" transform="translate(113.378906 0)"/>
      </g>
     </g>
    </g>
    <g id="ytick_20">
     <g id="line2d_26">
      <g>
       <use xlink:href="#m858e120c0f" x="68.747031" y="228.980893" style="fill: #808098; stroke: #808098; stroke-width: 0.8"/>
      </g>
     </g>
     <g id="text_27">
      <!-- surprised -->
      <g style="fill: #808098" transform="translate(19.801406 232.40019) scale(0.09 -0.09)">
       <use xlink:href="#DejaVuSans-73"/>
       <use xlink:href="#DejaVuSans-75" transform="translate(52.099609 0)"/>
       <use xlink:href="#DejaVuSans-72" transform="translate(115.478516 0)"/>
       <use xlink:href="#DejaVuSans-70" transform="translate(156.591797 0)"/>
       <use xlink:href="#DejaVuSans-72" transform="translate(220.068359 0)"/>
       <use xlink:href="#DejaVuSans-69" transform="translate(261.181641 0)"/>
       <use xlink:href="#DejaVuSans-73" transform="translate(288.964844 0)"/>
       <use xlink:href="#DejaVuSans-65" transform="translate(341.064453 0)"/>
       <use xlink:href="#DejaVuSans-64" transform="translate(402.587891 0)"/>
      </g>
     </g>
    </g>
   </g>
   <g id="line2d_27">
    <path d="M 301.339053 242.237969 
L 301.339053 23.077969 
" clip-path="url(#p945e41185d)" style="fill: none; stroke: #404060; stroke-width: 0.8; stroke-linecap: square"/>
   </g>
   <g id="line2d_28">
    <path d="M 401.021349 242.237969 
L 401.021349 23.077969 
" clip-path="url(#p945e41185d)" style="fill: none; stroke-dasharray: 3.7,1.6; stroke-dashoffset: 0; stroke: #cc5555; stroke-opacity: 0.6"/>
   </g>
   <g id="line2d_29">
    <path d="M 352.62548 242.237969 
L 352.62548 23.077969 
" clip-path="url(#p945e41185d)" style="fill: none; stroke: #ffaa44; stroke-opacity: 0.7; stroke-width: 1.5; stroke-linecap: square"/>
   </g>
   <g id="patch_23">
    <path d="M 68.747031 242.237969 
L 68.747031 23.077969 
" style="fill: none; stroke: #2a2a3a; stroke-width: 0.8; stroke-linejoin: miter; stroke-linecap: square"/>
   </g>
   <g id="patch_24">
    <path d="M 467.476212 242.237969 
L 467.476212 23.077969 
" style="fill: none; stroke: #2a2a3a; stroke-width: 0.8; stroke-linejoin: miter; stroke-linecap: square"/>
   </g>
   <g id="patch_25">
    <path d="M 68.747031 242.237969 
L 467.476212 242.237969 
" style="fill: none; stroke: #2a2a3a; stroke-width: 0.8; stroke-linejoin: miter; stroke-linecap: square"/>
   </g>
   <g id="patch_26">
    <path d="M 68.747031 23.077969 
L 467.476212 23.077969 
" style="fill: none; stroke: #2a2a3a; stroke-width: 0.8; stroke-linejoin: miter; stroke-linecap: square"/>
   </g>
   <g id="text_28">
    <!-- Fail threshold (0.3) -->
    <g style="fill: #cc5555; opacity: 0.8" transform="translate(407.666835 234.05052) scale(0.07 -0.07)">
     <defs>
      <path id="DejaVuSans-46" d="M 628 4666 
L 3309 4666 
L 3309 4134 
L 1259 4134 
L 1259 2759 
L 3109 2759 
L 3109 2228 
L 1259 2228 
L 1259 0 
L 628 0 
L 628 4666 
z
" transform="scale(0.015625)"/>
      <path id="DejaVuSans-28" d="M 1984 4856 
Q 1566 4138 1362 3434 
Q 1159 2731 1159 2009 
Q 1159 1288 1364 580 
Q 1569 -128 1984 -844 
L 1484 -844 
Q 1016 -109 783 600 
Q 550 1309 550 2009 
Q 550 2706 781 3412 
Q 1013 4119 1484 4856 
L 1984 4856 
z
" transform="scale(0.015625)"/>
      <path id="DejaVuSans-33" d="M 2597 2516 
Q 3050 2419 3304 2112 
Q 3559 1806 3559 1356 
Q 3559 666 3084 287 
Q 2609 -91 1734 -91 
Q 1441 -91 1130 -33 
Q 819 25 488 141 
L 488 750 
Q 750 597 1062 519 
Q 1375 441 1716 441 
Q 2309 441 2620 675 
Q 2931 909 2931 1356 
Q 2931 1769 2642 2001 
Q 2353 2234 1838 2234 
L 1294 2234 
L 1294 2753 
L 1863 2753 
Q 2328 2753 2575 2939 
Q 2822 3125 2822 3475 
Q 2822 3834 2567 4026 
Q 2313 4219 1838 4219 
Q 1578 4219 1281 4162 
Q 984 4106 628 3988 
L 628 4550 
Q 988 4650 1302 4700 
Q 1616 4750 1894 4750 
Q 2613 4750 3031 4423 
Q 3450 4097 3450 3541 
Q 3450 3153 3228 2886 
Q 3006 2619 2597 2516 
z
" transform="scale(0.015625)"/>
      <path id="DejaVuSans-29" d="M 513 4856 
L 1013 4856 
Q 1481 4119 1714 3412 
Q 1947 2706 1947 2009 
Q 1947 1309 1714 600 
Q 1481 -109 1013 -844 
L 513 -844 
Q 928 -128 1133 580 
Q 1338 1288 1338 2009 
Q 1338 2731 1133 3434 
Q 928 4138 513 4856 
z
" transform="scale(0.015625)"/>
     </defs>
     <use xlink:href="#DejaVuSans-46"/>
     <use xlink:href="#DejaVuSans-61" transform="translate(48.394531 0)"/>
     <use xlink:href="#DejaVuSans-69" transform="translate(109.673828 0)"/>
     <use xlink:href="#DejaVuSans-6c" transform="translate(137.457031 0)"/>
     <use xlink:href="#DejaVuSans-20" transform="translate(165.240234 0)"/>
     <use xlink:href="#DejaVuSans-74" transform="translate(197.027344 0)"/>
     <use xlink:href="#DejaVuSans-68" transform="translate(236.236328 0)"/>
     <use xlink:href="#DejaVuSans-72" transform="translate(299.615234 0)"/>
     <use xlink:href="#DejaVuSans-65" transform="translate(338.478516 0)"/>
     <use xlink:href="#DejaVuSans-73" transform="translate(400.001953 0)"/>
     <use xlink:href="#DejaVuSans-68" transform="translate(452.101562 0)"/>
     <use xlink:href="#DejaVuSans-6f" transform="translate(515.480469 0)"/>
     <use xlink:href="#DejaVuSans-6c" transform="translate(576.662109 0)"/>
     <use xlink:href="#DejaVuSans-64" transform="translate(604.445312 0)"/>
     <use xlink:href="#DejaVuSans-20" transform="translate(667.921875 0)"/>
     <use xlink:href="#DejaVuSans-28" transform="translate(699.708984 0)"/>
     <use xlink:href="#DejaVuSans-30" transform="translate(738.722656 0)"/>
     <use xlink:href="#DejaVuSans-2e" transform="translate(802.345703 0)"/>
     <use xlink:href="#DejaVuSans-33" transform="translate(834.132812 0)"/>
     <use xlink:href="#DejaVuSans-29" transform="translate(897.755859 0)"/>
    </g>
   </g>
   <g id="text_29">
    <!-- Mean = 0.154 -->
    <g style="fill: #ffaa44" transform="translate(282.43015 29.237566) scale(0.09 -0.09)">
     <defs>
      <path id="DejaVuSans-4d" d="M 628 4666 
L 1569 4666 
L 2759 1491 
L 3956 4666 
L 4897 4666 
L 4897 0 
L 4281 0 
L 4281 4097 
L 3078 897 
L 2444 897 
L 1241 4097 
L 1241 0 
L 628 0 
L 628 4666 
z
" transform="scale(0.015625)"/>
      <path id="DejaVuSans-3d" d="M 678 2906 
L 4684 2906 
L 4684 2381 
L 678 2381 
L 678 2906 
z
M 678 1631 
L 4684 1631 
L 4684 1100 
L 678 1100 
L 678 1631 
z
" transform="scale(0.015625)"/>
      <path id="DejaVuSans-31" d="M 794 531 
L 1825 531 
L 1825 4091 
L 703 3866 
L 703 4441 
L 1819 4666 
L 2450 4666 
L 2450 531 
L 3481 531 
L 3481 0 
L 794 0 
L 794 531 
z
" transform="scale(0.015625)"/>
      <path id="DejaVuSans-35" d="M 691 4666 
L 3169 4666 
L 3169 4134 
L 1269 4134 
L 1269 2991 
Q 1406 3038 1543 3061 
Q 1681 3084 1819 3084 
Q 2600 3084 3056 2656 
Q 3513 2228 3513 1497 
Q 3513 744 3044 326 
Q 2575 -91 1722 -91 
Q 1428 -91 1123 -41 
Q 819 9 494 109 
L 494 744 
Q 775 591 1075 516 
Q 1375 441 1709 441 
Q 2250 441 2565 725 
Q 2881 1009 2881 1497 
Q 2881 1984 2565 2268 
Q 2250 2553 1709 2553 
Q 1456 2553 1204 2497 
Q 953 2441 691 2322 
L 691 4666 
z
" transform="scale(0.015625)"/>
     </defs>
     <use xlink:href="#DejaVuSans-4d"/>
     <use xlink:href="#DejaVuSans-65" transform="translate(86.279297 0)"/>
     <use xlink:href="#DejaVuSans-61" transform="translate(147.802734 0)"/>
     <use xlink:href="#DejaVuSans-6e" transform="translate(209.082031 0)"/>
     <use xlink:href="#DejaVuSans-20" transform="translate(272.460938 0)"/>
     <use xlink:href="#DejaVuSans-3d" transform="translate(304.248047 0)"/>
     <use xlink:href="#DejaVuSans-20" transform="translate(388.037109 0)"/>
     <use xlink:href="#DejaVuSans-30" transform="translate(419.824219 0)"/>
     <use xlink:href="#DejaVuSans-2e" transform="translate(483.447266 0)"/>
     <use xlink:href="#DejaVuSans-31" transform="translate(515.234375 0)"/>
     <use xlink:href="#DejaVuSans-35" transform="translate(578.857422 0)"/>
     <use xlink:href="#DejaVuSans-34" transform="translate(642.480469 0)"/>
    </g>
   </g>
   <g id="text_30">
    <!-- 0.108 -->
    <g style="fill: #a0a0b8" transform="translate(343.836694 38.542545) scale(0.08 -0.08)">
     <defs>
      <path id="DejaVuSans-38" d="M 2034 2216 
Q 1584 2216 1326 1975 
Q 1069 1734 1069 1313 
Q 1069 891 1326 650 
Q 1584 409 2034 409 
Q 2484 409 2743 651 
Q 3003 894 3003 1313 
Q 3003 1734 2745 1975 
Q 2488 2216 2034 2216 
z
M 1403 2484 
Q 997 2584 770 2862 
Q 544 3141 544 3541 
Q 544 4100 942 4425 
Q 1341 4750 2034 4750 
Q 2731 4750 3128 4425 
Q 3525 4100 3525 3541 
Q 3525 3141 3298 2862 
Q 3072 2584 2669 2484 
Q 3125 2378 3379 2068 
Q 3634 1759 3634 1313 
Q 3634 634 3220 271 
Q 2806 -91 2034 -91 
Q 1263 -91 848 271 
Q 434 634 434 1313 
Q 434 1759 690 2068 
Q 947 2378 1403 2484 
z
M 1172 3481 
Q 1172 3119 1398 2916 
Q 1625 2713 2034 2713 
Q 2441 2713 2670 2916 
Q 2900 3119 2900 3481 
Q 2900 3844 2670 4047 
Q 2441 4250 2034 4250 
Q 1625 4250 1398 4047 
Q 1172 3844 1172 3481 
z
" transform="scale(0.015625)"/>
     </defs>
     <use xlink:href="#DejaVuSans-30"/>
     <use xlink:href="#DejaVuSans-2e" transform="translate(63.623047 0)"/>
     <use xlink:href="#DejaVuSans-31" transform="translate(95.410156 0)"/>
     <use xlink:href="#DejaVuSans-30" transform="translate(159.033203 0)"/>
     <use xlink:href="#DejaVuSans-38" transform="translate(222.65625 0)"/>
    </g>
   </g>
   <g id="text_31">
    <!-- 0.191 -->
    <g style="fill: #a0a0b8" transform="translate(371.336179 48.6818) scale(0.08 -0.08)">
     <defs>
      <path id="DejaVuSans-39" d="M 703 97 
L 703 672 
Q 941 559 1184 500 
Q 1428 441 1663 441 
Q 2288 441 2617 861 
Q 2947 1281 2994 2138 
Q 2813 1869 2534 1725 
Q 2256 1581 1919 1581 
Q 1219 1581 811 2004 
Q 403 2428 403 3163 
Q 403 3881 828 4315 
Q 1253 4750 1959 4750 
Q 2769 4750 3195 4129 
Q 3622 3509 3622 2328 
Q 3622 1225 3098 567 
Q 2575 -91 1691 -91 
Q 1453 -91 1209 -44 
Q 966 3 703 97 
z
M 1959 2075 
Q 2384 2075 2632 2365 
Q 2881 2656 2881 3163 
Q 2881 3666 2632 3958 
Q 2384 4250 1959 4250 
Q 1534 4250 1286 3958 
Q 1038 3666 1038 3163 
Q 1038 2656 1286 2365 
Q 1534 2075 1959 2075 
z
" transform="scale(0.015625)"/>
     </defs>
     <use xlink:href="#DejaVuSans-30"/>
     <use xlink:href="#DejaVuSans-2e" transform="translate(63.623047 0)"/>
     <use xlink:href="#DejaVuSans-31" transform="translate(95.410156 0)"/>
     <use xlink:href="#DejaVuSans-39" transform="translate(159.033203 0)"/>
     <use xlink:href="#DejaVuSans-31" transform="translate(222.65625 0)"/>
    </g>
   </g>
   <g id="text_32">
    <!-- 0.173 -->
    <g style="fill: #a0a0b8" transform="translate(365.607635 58.821055) scale(0.08 -0.08)">
     <defs>
      <path id="DejaVuSans-37" d="M 525 4666 
L 3525 4666 
L 3525 4397 
L 1831 0 
L 1172 0 
L 2766 4134 
L 525 4134 
L 525 4666 
z
" transform="scale(0.015625)"/>
     </defs>
     <use xlink:href="#DejaVuSans-30"/>
     <use xlink:href="#DejaVuSans-2e" transform="translate(63.623047 0)"/>
     <use xlink:href="#DejaVuSans-31" transform="translate(95.410156 0)"/>
     <use xlink:href="#DejaVuSans-37" transform="translate(159.033203 0)"/>
     <use xlink:href="#DejaVuSans-33" transform="translate(222.65625 0)"/>
    </g>
   </g>
   <g id="text_33">
    <!-- -0.364 -->
    <g style="fill: #a0a0b8" transform="translate(147.961622 68.96031) scale(0.08 -0.08)">
     <use xlink:href="#DejaVuSans-2d"/>
     <use xlink:href="#DejaVuSans-30" transform="translate(36.083984 0)"/>
     <use xlink:href="#DejaVuSans-2e" transform="translate(99.707031 0)"/>
     <use xlink:href="#DejaVuSans-33" transform="translate(131.494141 0)"/>
     <use xlink:href="#DejaVuSans-36" transform="translate(195.117188 0)"/>
     <use xlink:href="#DejaVuSans-34" transform="translate(258.740234 0)"/>
    </g>
   </g>
   <g id="text_34">
    <!-- 0.028 -->
    <g style="fill: #a0a0b8" transform="translate(317.21205 79.099565) scale(0.08 -0.08)">
     <use xlink:href="#DejaVuSans-30"/>
     <use xlink:href="#DejaVuSans-2e" transform="translate(63.623047 0)"/>
     <use xlink:href="#DejaVuSans-30" transform="translate(95.410156 0)"/>
     <use xlink:href="#DejaVuSans-32" transform="translate(159.033203 0)"/>
     <use xlink:href="#DejaVuSans-38" transform="translate(222.65625 0)"/>
    </g>
   </g>
   <g id="text_35">
    <!-- 0.019 -->
    <g style="fill: #a0a0b8" transform="translate(314.436385 89.238821) scale(0.08 -0.08)">
     <use xlink:href="#DejaVuSans-30"/>
     <use xlink:href="#DejaVuSans-2e" transform="translate(63.623047 0)"/>
     <use xlink:href="#DejaVuSans-30" transform="translate(95.410156 0)"/>
     <use xlink:href="#DejaVuSans-31" transform="translate(159.033203 0)"/>
     <use xlink:href="#DejaVuSans-39" transform="translate(222.65625 0)"/>
    </g>
   </g>
   <g id="text_36">
    <!-- 0.364 -->
    <g style="fill: #a0a0b8" transform="translate(429.096256 99.378076) scale(0.08 -0.08)">
     <use xlink:href="#DejaVuSans-30"/>
     <use xlink:href="#DejaVuSans-2e" transform="translate(63.623047 0)"/>
     <use xlink:href="#DejaVuSans-33" transform="translate(95.410156 0)"/>
     <use xlink:href="#DejaVuSans-36" transform="translate(159.033203 0)"/>
     <use xlink:href="#DejaVuSans-34" transform="translate(222.65625 0)"/>
    </g>
   </g>
   <g id="text_37">
    <!-- 0.005 -->
    <g style="fill: #a0a0b8" transform="translate(309.770473 109.517331) scale(0.08 -0.08)">
     <use xlink:href="#DejaVuSans-30"/>
     <use xlink:href="#DejaVuSans-2e" transform="translate(63.623047 0)"/>
     <use xlink:href="#DejaVuSans-30" transform="translate(95.410156 0)"/>
     <use xlink:href="#DejaVuSans-30" transform="translate(159.033203 0)"/>
     <use xlink:href="#DejaVuSans-35" transform="translate(222.65625 0)"/>
    </g>
   </g>
   <g id="text_38">
    <!-- 0.189 -->
    <g style="fill: #a0a0b8" transform="translate(370.798822 119.656586) scale(0.08 -0.08)">
     <use xlink:href="#DejaVuSans-30"/>
     <use xlink:href="#DejaVuSans-2e" transform="translate(63.623047 0)"/>
     <use xlink:href="#DejaVuSans-31" transform="translate(95.410156 0)"/>
     <use xlink:href="#DejaVuSans-38" transform="translate(159.033203 0)"/>
     <use xlink:href="#DejaVuSans-39" transform="translate(222.65625 0)"/>
    </g>
   </g>
   <g id="text_39">
    <!-- 0.093 -->
    <g style="fill: #a0a0b8" transform="translate(338.727317 129.795841) scale(0.08 -0.08)">
     <use xlink:href="#DejaVuSans-30"/>
     <use xlink:href="#DejaVuSans-2e" transform="translate(63.623047 0)"/>
     <use xlink:href="#DejaVuSans-30" transform="translate(95.410156 0)"/>
     <use xlink:href="#DejaVuSans-39" transform="translate(159.033203 0)"/>
     <use xlink:href="#DejaVuSans-33" transform="translate(222.65625 0)"/>
    </g>
   </g>
   <g id="text_40">
    <!-- 0.359 -->
    <g style="fill: #a0a0b8" transform="translate(427.15102 139.935096) scale(0.08 -0.08)">
     <use xlink:href="#DejaVuSans-30"/>
     <use xlink:href="#DejaVuSans-2e" transform="translate(63.623047 0)"/>
     <use xlink:href="#DejaVuSans-33" transform="translate(95.410156 0)"/>
     <use xlink:href="#DejaVuSans-35" transform="translate(159.033203 0)"/>
     <use xlink:href="#DejaVuSans-39" transform="translate(222.65625 0)"/>
    </g>
   </g>
   <g id="text_41">
    <!-- 0.466 -->
    <g style="fill: #a0a0b8" transform="translate(462.687159 150.074351) scale(0.08 -0.08)">
     <use xlink:href="#DejaVuSans-30"/>
     <use xlink:href="#DejaVuSans-2e" transform="translate(63.623047 0)"/>
     <use xlink:href="#DejaVuSans-34" transform="translate(95.410156 0)"/>
     <use xlink:href="#DejaVuSans-36" transform="translate(159.033203 0)"/>
     <use xlink:href="#DejaVuSans-36" transform="translate(222.65625 0)"/>
    </g>
   </g>
   <g id="text_42">
    <!-- 0.082 -->
    <g style="fill: #a0a0b8" transform="translate(335.126672 160.213607) scale(0.08 -0.08)">
     <use xlink:href="#DejaVuSans-30"/>
     <use xlink:href="#DejaVuSans-2e" transform="translate(63.623047 0)"/>
     <use xlink:href="#DejaVuSans-30" transform="translate(95.410156 0)"/>
     <use xlink:href="#DejaVuSans-38" transform="translate(159.033203 0)"/>
     <use xlink:href="#DejaVuSans-32" transform="translate(222.65625 0)"/>
    </g>
   </g>
   <g id="text_43">
    <!-- 0.156 -->
    <g style="fill: #a0a0b8" transform="translate(359.738525 170.352862) scale(0.08 -0.08)">
     <use xlink:href="#DejaVuSans-30"/>
     <use xlink:href="#DejaVuSans-2e" transform="translate(63.623047 0)"/>
     <use xlink:href="#DejaVuSans-31" transform="translate(95.410156 0)"/>
     <use xlink:href="#DejaVuSans-35" transform="translate(159.033203 0)"/>
     <use xlink:href="#DejaVuSans-36" transform="translate(222.65625 0)"/>
    </g>
   </g>
   <g id="text_44">
    <!-- 0.296 -->
    <g style="fill: #a0a0b8" transform="translate(406.201678 180.492117) scale(0.08 -0.08)">
     <use xlink:href="#DejaVuSans-30"/>
     <use xlink:href="#DejaVuSans-2e" transform="translate(63.623047 0)"/>
     <use xlink:href="#DejaVuSans-32" transform="translate(95.410156 0)"/>
     <use xlink:href="#DejaVuSans-39" transform="translate(159.033203 0)"/>
     <use xlink:href="#DejaVuSans-36" transform="translate(222.65625 0)"/>
    </g>
   </g>
   <g id="text_45">
    <!-- -0.152 -->
    <g style="fill: #a0a0b8" transform="translate(218.509986 190.631372) scale(0.08 -0.08)">
     <use xlink:href="#DejaVuSans-2d"/>
     <use xlink:href="#DejaVuSans-30" transform="translate(36.083984 0)"/>
     <use xlink:href="#DejaVuSans-2e" transform="translate(99.707031 0)"/>
     <use xlink:href="#DejaVuSans-31" transform="translate(131.494141 0)"/>
     <use xlink:href="#DejaVuSans-35" transform="translate(195.117188 0)"/>
     <use xlink:href="#DejaVuSans-32" transform="translate(258.740234 0)"/>
    </g>
   </g>
   <g id="text_46">
    <!-- 0.188 -->
    <g style="fill: #a0a0b8" transform="translate(370.450208 200.770627) scale(0.08 -0.08)">
     <use xlink:href="#DejaVuSans-30"/>
     <use xlink:href="#DejaVuSans-2e" transform="translate(63.623047 0)"/>
     <use xlink:href="#DejaVuSans-31" transform="translate(95.410156 0)"/>
     <use xlink:href="#DejaVuSans-38" transform="translate(159.033203 0)"/>
     <use xlink:href="#DejaVuSans-38" transform="translate(222.65625 0)"/>
    </g>
   </g>
   <g id="text_47">
    <!-- 0.185 -->
    <g style="fill: #a0a0b8" transform="translate(369.350892 210.909882) scale(0.08 -0.08)">
     <use xlink:href="#DejaVuSans-30"/>
     <use xlink:href="#DejaVuSans-2e" transform="translate(63.623047 0)"/>
     <use xlink:href="#DejaVuSans-31" transform="translate(95.410156 0)"/>
     <use xlink:href="#DejaVuSans-38" transform="translate(159.033203 0)"/>
     <use xlink:href="#DejaVuSans-35" transform="translate(222.65625 0)"/>
    </g>
   </g>
   <g id="text_48">
    <!-- 0.477 -->
    <g style="fill: #a0a0b8" transform="translate(466.456236 221.049137) scale(0.08 -0.08)">
     <use xlink:href="#DejaVuSans-30"/>
     <use xlink:href="#DejaVuSans-2e" transform="translate(63.623047 0)"/>
     <use xlink:href="#DejaVuSans-34" transform="translate(95.410156 0)"/>
     <use xlink:href="#DejaVuSans-37" transform="translate(159.033203 0)"/>
     <use xlink:href="#DejaVuSans-37" transform="translate(222.65625 0)"/>
    </g>
   </g>
   <g id="text_49">
    <!-- 0.225 -->
    <g style="fill: #a0a0b8" transform="translate(382.80408 231.188393) scale(0.08 -0.08)">
     <use xlink:href="#DejaVuSans-30"/>
     <use xlink:href="#DejaVuSans-2e" transform="translate(63.623047 0)"/>
     <use xlink:href="#DejaVuSans-32" transform="translate(95.410156 0)"/>
     <use xlink:href="#DejaVuSans-32" transform="translate(159.033203 0)"/>
     <use xlink:href="#DejaVuSans-35" transform="translate(222.65625 0)"/>
    </g>
   </g>
   <g id="text_50">
    <!-- Speaker Separation — Same Emotion, Different Speaker Roles -->
    <g style="fill: #d0d0e0" transform="translate(65.59295 17.077969) scale(0.13 -0.13)">
     <defs>
      <path id="DejaVuSans-53" d="M 3425 4513 
L 3425 3897 
Q 3066 4069 2747 4153 
Q 2428 4238 2131 4238 
Q 1616 4238 1336 4038 
Q 1056 3838 1056 3469 
Q 1056 3159 1242 3001 
Q 1428 2844 1947 2747 
L 2328 2669 
Q 3034 2534 3370 2195 
Q 3706 1856 3706 1288 
Q 3706 609 3251 259 
Q 2797 -91 1919 -91 
Q 1588 -91 1214 -16 
Q 841 59 441 206 
L 441 856 
Q 825 641 1194 531 
Q 1563 422 1919 422 
Q 2459 422 2753 634 
Q 3047 847 3047 1241 
Q 3047 1584 2836 1778 
Q 2625 1972 2144 2069 
L 1759 2144 
Q 1053 2284 737 2584 
Q 422 2884 422 3419 
Q 422 4038 858 4394 
Q 1294 4750 2059 4750 
Q 2388 4750 2728 4690 
Q 3069 4631 3425 4513 
z
" transform="scale(0.015625)"/>
      <path id="DejaVuSans-2014" d="M 313 1978 
L 6088 1978 
L 6088 1528 
L 313 1528 
L 313 1978 
z
" transform="scale(0.015625)"/>
      <path id="DejaVuSans-45" d="M 628 4666 
L 3578 4666 
L 3578 4134 
L 1259 4134 
L 1259 2753 
L 3481 2753 
L 3481 2222 
L 1259 2222 
L 1259 531 
L 3634 531 
L 3634 0 
L 628 0 
L 628 4666 
z
" transform="scale(0.015625)"/>
      <path id="DejaVuSans-2c" d="M 750 794 
L 1409 794 
L 1409 256 
L 897 -744 
L 494 -744 
L 750 256 
L 750 794 
z
" transform="scale(0.015625)"/>
      <path id="DejaVuSans-44" d="M 1259 4147 
L 1259 519 
L 2022 519 
Q 2988 519 3436 956 
Q 3884 1394 3884 2338 
Q 3884 3275 3436 3711 
Q 2988 4147 2022 4147 
L 1259 4147 
z
M 628 4666 
L 1925 4666 
Q 3281 4666 3915 4102 
Q 4550 3538 4550 2338 
Q 4550 1131 3912 565 
Q 3275 0 1925 0 
L 628 0 
L 628 4666 
z
" transform="scale(0.015625)"/>
      <path id="DejaVuSans-52" d="M 2841 2188 
Q 3044 2119 3236 1894 
Q 3428 1669 3622 1275 
L 4263 0 
L 3584 0 
L 2988 1197 
Q 2756 1666 2539 1819 
Q 2322 1972 1947 1972 
L 1259 1972 
L 1259 0 
L 628 0 
L 628 4666 
L 2053 4666 
Q 2853 4666 3247 4331 
Q 3641 3997 3641 3322 
Q 3641 2881 3436 2590 
Q 3231 2300 2841 2188 
z
M 1259 4147 
L 1259 2491 
L 2053 2491 
Q 2509 2491 2742 2702 
Q 2975 2913 2975 3322 
Q 2975 3731 2742 3939 
Q 2509 4147 2053 4147 
L 1259 4147 
z
" transform="scale(0.015625)"/>
     </defs>
     <use xlink:href="#DejaVuSans-53"/>
     <use xlink:href="#DejaVuSans-70" transform="translate(63.476562 0)"/>
     <use xlink:href="#DejaVuSans-65" transform="translate(126.953125 0)"/>
     <use xlink:href="#DejaVuSans-61" transform="translate(188.476562 0)"/>
     <use xlink:href="#DejaVuSans-6b" transform="translate(249.755859 0)"/>
     <use xlink:href="#DejaVuSans-65" transform="translate(304.041016 0)"/>
     <use xlink:href="#DejaVuSans-72" transform="translate(365.564453 0)"/>
     <use xlink:href="#DejaVuSans-20" transform="translate(406.677734 0)"/>
     <use xlink:href="#DejaVuSans-53" transform="translate(438.464844 0)"/>
     <use xlink:href="#DejaVuSans-65" transform="translate(501.941406 0)"/>
     <use xlink:href="#DejaVuSans-70" transform="translate(563.464844 0)"/>
     <use xlink:href="#DejaVuSans-61" transform="translate(626.941406 0)"/>
     <use xlink:href="#DejaVuSans-72" transform="translate(688.220703 0)"/>
     <use xlink:href="#DejaVuSans-61" transform="translate(729.333984 0)"/>
     <use xlink:href="#DejaVuSans-74" transform="translate(790.613281 0)"/>
     <use xlink:href="#DejaVuSans-69" transform="translate(829.822266 0)"/>
     <use xlink:href="#DejaVuSans-6f" transform="translate(857.605469 0)"/>
     <use xlink:href="#DejaVuSans-6e" transform="translate(918.787109 0)"/>
     <use xlink:href="#DejaVuSans-20" transform="translate(982.166016 0)"/>
     <use xlink:href="#DejaVuSans-2014" transform="translate(1013.953125 0)"/>
     <use xlink:href="#DejaVuSans-20" transform="translate(1113.953125 0)"/>
     <use xlink:href="#DejaVuSans-53" transform="translate(1145.740234 0)"/>
     <use xlink:href="#DejaVuSans-61" transform="translate(1209.216797 0)"/>
     <use xlink:href="#DejaVuSans-6d" transform="translate(1270.496094 0)"/>
     <use xlink:href="#DejaVuSans-65" transform="translate(1367.908203 0)"/>
     <use xlink:href="#DejaVuSans-20" transform="translate(1429.431641 0)"/>
     <use xlink:href="#DejaVuSans-45" transform="translate(1461.21875 0)"/>
     <use xlink:href="#DejaVuSans-6d" transform="translate(1524.402344 0)"/>
     <use xlink:href="#DejaVuSans-6f" transform="translate(1621.814453 0)"/>
     <use xlink:href="#DejaVuSans-74" transform="translate(1682.996094 0)"/>
     <use xlink:href="#DejaVuSans-69" transform="translate(1722.205078 0)"/>
     <use xlink:href="#DejaVuSans-6f" transform="translate(1749.988281 0)"/>
     <use xlink:href="#DejaVuSans-6e" transform="translate(1811.169922 0)"/>
     <use xlink:href="#DejaVuSans-2c" transform="translate(1874.548828 0)"/>
     <use xlink:href="#DejaVuSans-20" transform="translate(1906.335938 0)"/>
     <use xlink:href="#DejaVuSans-44" transform="translate(1938.123047 0)"/>
     <use xlink:href="#DejaVuSans-69" transform="translate(2015.125 0)"/>
     <use xlink:href="#DejaVuSans-66" transform="translate(2042.908203 0)"/>
     <use xlink:href="#DejaVuSans-66" transform="translate(2078.113281 0)"/>
     <use xlink:href="#DejaVuSans-65" transform="translate(2113.318359 0)"/>
     <use xlink:href="#DejaVuSans-72" transform="translate(2174.841797 0)"/>
     <use xlink:href="#DejaVuSans-65" transform="translate(2213.705078 0)"/>
     <use xlink:href="#DejaVuSans-6e" transform="translate(2275.228516 0)"/>
     <use xlink:href="#DejaVuSans-74" transform="translate(2338.607422 0)"/>
     <use xlink:href="#DejaVuSans-20" transform="translate(2377.816406 0)"/>
     <use xlink:href="#DejaVuSans-53" transform="translate(2409.603516 0)"/>
     <use xlink:href="#DejaVuSans-70" transform="translate(2473.080078 0)"/>
     <use xlink:href="#DejaVuSans-65" transform="translate(2536.556641 0)"/>
     <use xlink:href="#DejaVuSans-61" transform="translate(2598.080078 0)"/>
     <use xlink:href="#DejaVuSans-6b" transform="translate(2659.359375 0)"/>
     <use xlink:href="#DejaVuSans-65" transform="translate(2713.644531 0)"/>
     <use xlink:href="#DejaVuSans-72" transform="translate(2775.167969 0)"/>
     <use xlink:href="#DejaVuSans-20" transform="translate(2816.28125 0)"/>
     <use xlink:href="#DejaVuSans-52" transform="translate(2848.068359 0)"/>
     <use xlink:href="#DejaVuSans-6f" transform="translate(2913.050781 0)"/>
     <use xlink:href="#DejaVuSans-6c" transform="translate(2974.232422 0)"/>
     <use xlink:href="#DejaVuSans-65" transform="translate(3002.015625 0)"/>
     <use xlink:href="#DejaVuSans-73" transform="translate(3063.539062 0)"/>
    </g>
   </g>
  </g>
 </g>
 <defs>
  <clipPath id="p945e41185d">
   <rect x="68.747031" y="23.077969" width="398.729181" height="219.16"/>
  </clipPath>
 </defs>
</svg>
